<?xml version="1.0" standalone="no"?>
<!DOCTYPE svg PUBLIC "-//W3C//DTD SVG 20010904//EN"
 "http://www.w3.org/TR/2001/REC-SVG-20010904/DTD/svg10.dtd">
<svg version="1.0" xmlns="http://www.w3.org/2000/svg"
 width="400.000000pt" height="400.000000pt" viewBox="0 0 400.000000 400.000000"
 preserveAspectRatio="xMidYMid meet">
<metadata>
Created by potrace 1.14, written by Peter Selinger 2001-2017
</metadata>
<g transform="translate(0.000000,400.000000) scale(0.100000,-0.100000)"
fill="#000000" stroke="none">
<path d="M2489 3403 c-13 -16 -12 -17 4 -4 9 7 17 15 17 17 0 8 -8 3 -21 -13z"/>
<path d="M1543 3360 c-51 -28 -101 -68 -151 -120 -44 -46 -112 -142 -119 -168
-3 -14 -13 -33 -21 -43 -21 -24 -78 -177 -103 -276 l-21 -82 -52 -11 c-170
-39 -363 -119 -506 -210 -58 -37 -104 -72 -103 -78 1 -5 -8 -13 -21 -16 -13
-3 -38 -22 -55 -41 -17 -19 -34 -35 -38 -34 -4 1 -12 -7 -18 -17 -5 -10 -20
-27 -33 -37 -12 -10 -20 -23 -17 -28 4 -5 -1 -9 -10 -9 -8 0 -20 -10 -25 -22
-5 -13 -9 -18 -9 -13 -1 6 -28 -19 -61 -55 -39 -43 -58 -71 -54 -82 2 -9 0
-19 -6 -23 -5 -3 -11 -23 -11 -43 l-1 -37 -8 30 -8 30 -2 -30 c-2 -25 -3 -26
-7 -7 -5 28 -20 29 -28 2 -8 -25 11 -51 31 -43 8 3 14 0 14 -6 0 -6 -11 -11
-24 -11 -19 0 -25 -7 -31 -36 -4 -24 -13 -38 -26 -41 -15 -4 -19 -14 -19 -48
0 -26 6 -48 15 -55 11 -10 13 -25 8 -67 l-6 -55 34 7 c39 9 52 24 37 42 -7 9
-7 13 0 13 16 0 19 -22 9 -62 -9 -37 -37 -54 -37 -23 0 8 -7 15 -14 15 -11 0
-16 -14 -19 -48 l-3 -47 -2 53 c-1 28 -6 52 -12 52 -15 0 -13 -163 2 -178 10
-10 10 -17 0 -32 -16 -26 -15 -33 3 -26 11 4 15 -2 15 -21 0 -15 7 -34 15 -43
10 -11 12 -24 6 -45 -7 -24 -10 -27 -16 -13 -4 9 -4 21 -2 25 3 5 -3 19 -13
33 l-18 24 1 -38 c1 -24 9 -46 24 -62 13 -14 23 -32 23 -41 0 -11 -5 -9 -19 8
-26 32 -35 20 -15 -19 16 -34 29 -40 37 -19 3 6 6 -7 6 -31 1 -26 -5 -49 -14
-58 -13 -14 -15 -12 -13 10 1 13 6 22 10 20 4 -3 8 2 8 10 0 9 -7 16 -15 16
-8 0 -15 7 -15 15 0 8 -4 15 -10 15 -17 0 -11 -64 10 -98 19 -31 19 -34 2 -90
-15 -49 -17 -114 -20 -488 l-2 -431 527 -7 c291 -3 1169 -9 1953 -12 1280 -6
1429 -5 1461 10 l36 15 5 463 c3 278 1 470 -4 481 -6 11 -29 27 -53 38 -23 10
-48 26 -56 35 -18 21 -104 64 -129 64 -12 0 -67 12 -123 26 -90 24 -124 27
-292 29 -168 3 -201 6 -286 29 -53 14 -111 32 -130 40 -19 7 -53 16 -75 20
l-42 6 -27 -55 c-14 -30 -31 -53 -36 -50 -5 4 -9 -1 -9 -10 0 -21 -41 -76 -52
-69 -7 5 -10 -3 -7 -22 0 -3 -22 -29 -49 -58 -32 -34 -55 -69 -63 -97 -57
-200 -83 -251 -182 -347 -73 -71 -159 -137 -317 -245 l-115 -77 -76 0 c-62 0
-85 5 -125 26 -27 14 -56 34 -64 45 -9 11 -28 28 -44 38 -16 11 -24 21 -17 25
6 4 18 -2 28 -14 18 -20 43 -27 43 -11 0 5 -7 12 -16 15 -21 8 -5 29 51 64 22
14 45 31 52 38 12 12 108 44 132 44 7 0 34 11 62 25 27 14 55 25 62 24 17 -3
97 23 97 31 0 4 18 15 40 25 22 10 40 22 40 26 0 5 -18 -1 -40 -12 -31 -16
-44 -18 -54 -10 -11 9 -15 7 -19 -9 -3 -11 -11 -20 -17 -20 -7 0 -10 6 -7 14
4 11 -10 16 -64 21 -52 5 -69 11 -69 22 0 13 -3 13 -16 2 -13 -11 -17 -10 -25
4 -6 10 -16 14 -26 10 -13 -5 -15 -2 -10 11 5 13 3 17 -7 13 -10 -4 -14 0 -11
13 2 11 0 22 -6 25 -5 4 -9 -1 -9 -9 0 -10 -6 -13 -15 -10 -12 5 -13 9 -4 21
7 8 8 13 3 12 -21 -5 -44 15 -45 40 -1 17 -3 20 -6 9 -7 -27 -22 -22 -28 10
-4 15 -11 34 -16 42 -5 8 -12 23 -16 33 -3 10 -11 16 -18 13 -8 -3 -11 7 -10
30 3 37 -26 81 -45 69 -8 -5 -4 -12 9 -22 12 -8 21 -19 21 -24 0 -5 -16 6 -35
26 -29 28 -34 40 -29 61 4 17 3 25 -3 21 -13 -8 -43 29 -43 55 0 12 3 19 6 15
3 -3 17 7 31 24 27 31 63 39 63 13 0 -9 16 -32 35 -51 19 -19 35 -39 35 -43 0
-4 13 -12 28 -18 16 -5 41 -22 57 -36 16 -15 40 -26 56 -26 15 0 30 -6 32 -12
4 -10 8 -9 16 2 16 23 14 28 -19 35 -18 4 -32 15 -36 28 -3 12 -18 32 -33 45
l-26 22 28 -10 c35 -13 94 -13 102 -1 3 5 49 8 103 6 63 -3 87 -1 67 4 -16 5
-46 9 -66 10 -19 0 -44 8 -55 16 -10 8 -26 15 -35 15 -9 0 -22 7 -29 15 -7 9
-19 14 -27 11 -26 -10 -43 6 -43 40 0 36 18 45 39 20 6 -7 21 -11 34 -9 14 3
29 -2 36 -11 9 -11 18 -13 25 -7 8 6 26 6 51 0 49 -12 136 -11 150 2 5 5 22 9
38 9 15 0 36 4 45 9 9 4 30 11 46 15 28 7 28 6 23 -23 -4 -17 -5 -31 -3 -31 2
0 27 13 57 29 70 36 110 46 120 29 5 -7 9 -34 9 -60 0 -29 5 -48 11 -48 6 0 9
10 7 23 -3 18 7 36 44 73 26 27 48 52 48 56 0 5 7 8 15 8 29 0 16 50 -27 101
-22 27 -45 49 -50 49 -5 0 -44 29 -87 65 -109 90 -131 88 -61 -5 23 -30 38
-61 35 -69 -3 -8 0 -18 7 -23 10 -6 10 -8 -1 -8 -8 0 -5 -7 9 -18 16 -13 23
-30 24 -57 l1 -39 -47 -7 c-26 -4 -51 -9 -55 -12 -18 -11 -240 -54 -268 -52
-59 5 -105 17 -105 29 0 18 78 59 101 53 12 -3 19 0 19 8 0 7 14 18 30 24 44
15 36 25 -15 18 -29 -4 -49 -2 -57 6 -60 56 -112 95 -122 91 -8 -3 -16 2 -20
11 -4 11 -12 15 -23 11 -23 -9 -53 22 -53 54 0 38 11 90 19 90 18 0 44 -29 46
-50 3 -37 17 -33 51 14 l32 43 -49 22 -49 22 -50 -27 c-27 -15 -50 -31 -50
-35 0 -4 -9 -11 -20 -14 -11 -3 -22 -16 -26 -28 -5 -23 -51 -50 -76 -46 -16 3
-108 -42 -108 -53 0 -4 -6 -8 -13 -8 -8 0 -22 -9 -32 -20 -24 -27 -51 -25 -87
5 -23 20 -33 23 -49 15 -17 -10 -19 -7 -19 21 0 26 -3 29 -14 20 -8 -6 -20
-10 -27 -9 -10 2 -13 -6 -12 -27 1 -16 -1 -23 -4 -15 -4 9 -13 -11 -23 -50
-13 -52 -20 -66 -37 -68 -14 -2 -23 3 -27 15 -3 10 -3 0 -1 -21 2 -22 0 -35
-4 -30 -16 17 -61 229 -76 359 -15 134 -23 425 -12 460 3 11 13 88 22 170 9
83 18 168 21 190 3 22 7 58 10 80 2 22 7 63 10 90 4 37 3 46 -5 35 -24 -34
-10 28 14 64 14 20 25 40 25 44 0 4 9 13 20 20 11 7 20 17 20 23 0 5 -4 7 -10
4 -21 -13 -9 25 16 50 14 14 29 38 34 53 29 92 108 256 139 289 12 12 21 26
21 31 0 4 18 25 40 47 28 28 36 41 27 47 -8 5 -6 8 8 8 18 0 52 36 43 45 -2 2
-27 -10 -55 -25z m-409 -805 c-6 -16 -24 -21 -24 -7 0 11 11 22 21 22 5 0 6
-7 3 -15z m-37 -87 c-3 -8 -6 -5 -6 6 -1 11 2 17 5 13 3 -3 4 -12 1 -19z m-47
-14 c0 -8 -4 -13 -9 -9 -5 3 -12 1 -15 -4 -4 -5 -2 -12 4 -16 16 -10 12 -28
-5 -21 -17 6 -23 -12 -28 -84 -2 -31 -4 -22 -5 26 -2 59 2 76 19 98 23 29 39
34 39 10z m74 -29 c-4 -8 -8 -15 -10 -15 -2 0 -4 7 -4 15 0 8 4 15 10 15 5 0
7 -7 4 -15z m-45 -79 c-3 -3 -11 5 -18 17 -13 21 -12 21 5 5 10 -10 16 -20 13
-22z m7 -126 c-1 -55 -6 -103 -9 -106 -3 -3 -4 30 -3 73 4 118 6 133 11 133 3
0 3 -45 1 -100z m-39 -132 c-2 -13 -4 -3 -4 22 0 25 2 35 4 23 2 -13 2 -33 0
-45z m65 -65 c6 -8 4 -21 -6 -41 -13 -25 -13 -32 -1 -49 8 -11 11 -24 7 -27
-4 -4 -12 -38 -18 -74 -10 -66 -11 -67 -23 -37 -16 36 -17 81 -4 115 33 83 36
97 24 130 -6 18 -11 40 -10 49 0 9 5 0 11 -19 5 -19 14 -40 20 -47z m-899 37
c3 -11 1 -23 -4 -26 -5 -3 -9 6 -9 20 0 31 6 34 13 6z m34 -84 c-4 -10 -18
-16 -37 -16 -25 0 -30 4 -30 23 1 20 2 20 11 5 5 -10 19 -18 31 -18 16 0 19 5
15 21 -4 16 -3 19 5 11 6 -6 8 -18 5 -26z m36 4 c3 -11 1 -20 -4 -20 -5 0 -9
9 -9 20 0 11 2 20 4 20 2 0 6 -9 9 -20z m-133 -25 c0 -14 -4 -25 -10 -25 -5 0
-10 11 -10 25 0 14 5 25 10 25 6 0 10 -11 10 -25z m234 -100 c3 -8 1 -15 -4
-15 -6 0 -10 7 -10 15 0 8 2 15 4 15 2 0 6 -7 10 -15z m-152 -20 c-2 -14 -6
-25 -8 -25 -2 0 -4 11 -4 25 0 14 4 25 9 25 4 0 6 -11 3 -25z m-162 -15 c0
-11 -4 -20 -10 -20 -5 0 -10 9 -10 20 0 11 5 20 10 20 6 0 10 -9 10 -20z m105
-20 c3 -5 2 -10 -4 -10 -5 0 -13 5 -16 10 -3 6 -2 10 4 10 5 0 13 -4 16 -10z
m22 -67 c1 -22 -1 -24 -8 -10 -6 9 -7 22 -4 27 9 14 10 13 12 -17z m-97 7 c0
-5 -4 -10 -10 -10 -5 0 -10 5 -10 10 0 6 5 10 10 10 6 0 10 -4 10 -10z m117
-22 c-3 -8 -6 -5 -6 6 -1 11 2 17 5 13 3 -3 4 -12 1 -19z m-120 -45 c-3 -10
-5 -2 -5 17 0 19 2 27 5 18 2 -10 2 -26 0 -35z m153 31 c0 -8 -4 -12 -10 -9
-5 3 -10 10 -10 16 0 5 5 9 10 9 6 0 10 -7 10 -16z m179 -42 c1 -7 -3 -10 -9
-7 -5 3 -10 18 -9 33 0 24 1 25 9 7 5 -11 9 -26 9 -33z m-215 13 c-4 -8 -11
-15 -16 -15 -6 0 -5 6 2 15 7 8 14 15 16 15 2 0 1 -7 -2 -15z m-74 -15 c0 -5
-7 -10 -15 -10 -8 0 -15 5 -15 10 0 6 7 10 15 10 8 0 15 -4 15 -10z m23 -47
c-7 -3 -13 -13 -13 -24 0 -10 -4 -19 -10 -19 -17 0 -11 32 7 46 10 7 20 10 23
7 3 -3 -1 -8 -7 -10z m54 -30 c-3 -3 -10 -2 -16 2 -7 4 -7 10 2 20 10 11 13
11 15 -2 2 -8 1 -17 -1 -20z m54 0 c-12 -20 -14 -14 -5 12 4 9 9 14 11 11 3
-2 0 -13 -6 -23z m39 -8 c0 -8 -4 -16 -9 -19 -5 -3 -8 5 -7 18 1 25 16 26 16
1z m-60 -11 c0 -8 -4 -12 -10 -9 -5 3 -10 10 -10 16 0 5 5 9 10 9 6 0 10 -7
10 -16z m120 -27 c0 -5 -4 -5 -10 -2 -5 3 -10 14 -10 23 0 15 2 15 10 2 5 -8
10 -19 10 -23z m-240 2 c0 -5 -4 -9 -10 -9 -5 0 -10 7 -10 16 0 8 5 12 10 9 6
-3 10 -10 10 -16z m-38 -34 c-3 -13 1 -16 12 -12 10 4 16 1 16 -8 0 -12 -5
-12 -25 -3 -25 11 -37 54 -12 45 6 -2 11 -12 9 -22z m60 3 c-3 -14 -2 -19 6
-14 8 4 12 0 12 -11 0 -16 -1 -16 -16 -1 -9 9 -14 24 -11 32 9 24 16 19 9 -6z
m-96 -35 c-10 -10 -19 5 -10 18 6 11 8 11 12 0 2 -7 1 -15 -2 -18z m29 -3 c3
-5 1 -10 -4 -10 -6 0 -11 5 -11 10 0 6 2 10 4 10 3 0 8 -4 11 -10z m-35 -25
c13 4 19 -1 23 -22 7 -37 0 -42 -19 -15 -8 12 -22 22 -30 22 -16 0 -17 2 -7
27 7 17 8 17 11 0 2 -12 9 -16 22 -12z m69 -55 c0 -9 -4 -8 -9 5 -5 11 -9 27
-9 35 0 9 4 8 9 -5 5 -11 9 -27 9 -35z m121 40 c0 -5 -2 -10 -4 -10 -3 0 -8 5
-11 10 -3 6 -1 10 4 10 6 0 11 -4 11 -10z m-29 -52 c-3 -21 -6 -26 -9 -15 -3
17 3 47 11 47 2 0 1 -15 -2 -32z m-121 -28 c-6 -4 -11 -10 -11 -14 3 -20 0
-26 -9 -21 -15 9 -12 32 8 55 15 18 17 19 20 4 2 -9 -1 -20 -8 -24z m1391 -2
c9 -101 5 -113 -22 -71 -19 28 -25 64 -12 76 11 12 33 8 34 -5z m-1254 -50
c-2 -13 -4 -5 -4 17 -1 22 1 32 4 23 2 -10 2 -28 0 -40z m-65 -16 c3 -34 0
-51 -6 -49 -11 4 -17 84 -9 100 8 14 12 3 15 -51z m-58 13 c-3 -14 -1 -32 6
-40 6 -8 9 -19 5 -26 -6 -8 -10 -7 -16 2 -10 17 -12 73 -2 82 12 12 13 7 7
-18z m175 -64 c0 -14 -1 -14 -6 -1 -3 8 -13 24 -22 35 -16 20 -16 20 7 1 12
-11 22 -26 21 -35z m28 -3 c-3 -8 -6 -5 -6 6 -1 11 2 17 5 13 3 -3 4 -12 1
-19z m-98 -25 c9 -7 11 -13 6 -13 -16 0 -35 22 -34 40 0 13 1 13 6 0 4 -8 13
-20 22 -27z m1313 -3 c4 0 8 -4 8 -10 0 -5 -11 -10 -25 -10 -20 0 -25 5 -25
23 0 33 13 42 24 18 5 -12 13 -21 18 -21z m282 25 c-4 -8 -10 -15 -15 -15 -4
0 -6 7 -3 15 4 8 10 15 15 15 4 0 6 -7 3 -15z m-1707 -32 c17 -43 26 -85 25
-118 -1 -26 0 -27 7 -10 8 16 10 16 10 4 1 -9 -6 -22 -14 -29 -12 -10 -13 -16
-4 -27 15 -18 4 -29 -15 -14 -9 8 -12 22 -7 44 10 47 5 90 -13 125 -9 17 -16
36 -16 42 0 20 15 10 27 -17z m210 -25 c-3 -7 -5 -2 -5 12 0 14 2 19 5 13 2
-7 2 -19 0 -25z m-158 -32 c-9 -8 -10 -7 -5 7 3 10 7 26 7 35 1 9 4 6 6 -7 3
-13 -1 -28 -8 -35z m81 24 c0 -5 -2 -10 -4 -10 -3 0 -8 5 -11 10 -3 6 -1 10 4
10 6 0 11 -4 11 -10z m-153 -42 c-3 -8 -6 -5 -6 6 -1 11 2 17 5 13 3 -3 4 -12
1 -19z m227 -34 c3 -8 2 -12 -4 -9 -6 3 -10 10 -10 16 0 14 7 11 14 -7z m-287
-16 c-3 -8 -6 -5 -6 6 -1 11 2 17 5 13 3 -3 4 -12 1 -19z m358 -31 c4 4 5 2 1
-4 -4 -7 -2 -22 4 -33 6 -11 8 -20 6 -20 -7 0 -46 76 -46 87 1 4 6 -2 13 -15
7 -12 17 -19 22 -15z m-165 -17 c0 -5 -4 -10 -10 -10 -5 0 -10 5 -10 10 0 6 5
10 10 10 6 0 10 -4 10 -10z m-100 -69 c6 -32 4 -41 -9 -47 -9 -4 -20 -6 -24
-5 -5 1 -6 -7 -2 -18 3 -12 0 -21 -10 -25 -11 -4 -15 1 -15 18 0 14 5 26 11
28 6 2 9 13 6 23 -5 19 -5 19 -12 -2 -4 -13 -11 -23 -16 -23 -5 0 -6 -13 -3
-30 4 -19 2 -30 -5 -30 -14 0 -6 83 8 88 6 2 11 10 11 17 0 15 41 58 48 50 3
-2 8 -22 12 -44z m40 -6 c0 -14 -4 -25 -10 -25 -5 0 -10 11 -10 25 0 14 5 25
10 25 6 0 10 -11 10 -25z m16 -62 c-11 -11 -17 4 -9 23 7 18 8 18 11 1 2 -10
1 -21 -2 -24z m1527 -63 c3 -11 3 -20 1 -20 -2 0 -8 9 -14 20 -6 11 -7 20 -2
20 6 0 12 -9 15 -20z"/>
<path d="M82 940 c-1 -16 2 -30 8 -30 5 0 10 14 10 30 0 17 -4 30 -8 30 -4 0
-9 -13 -10 -30z"/>
<path d="M2810 3137 c0 -20 29 -42 40 -31 5 5 -2 16 -16 27 -19 14 -24 15 -24
4z"/>
<path d="M2846 3084 c-4 -10 -1 -14 6 -12 15 5 23 28 10 28 -5 0 -13 -7 -16
-16z"/>
<path d="M2868 3044 c23 -16 31 -41 10 -28 -8 4 -10 3 -5 -2 5 -5 13 -10 18
-10 22 -3 23 -5 10 -13 -11 -7 -11 -15 -1 -47 13 -40 69 -123 83 -124 8 0 1
42 -13 75 -4 11 -18 46 -31 77 -13 33 -30 60 -41 64 -10 3 -18 10 -18 15 0 5
-8 9 -17 9 -14 0 -13 -3 5 -16z m71 -108 c0 -6 -3 -6 -6 2 -2 6 -8 10 -13 7
-4 -3 -10 5 -13 16 -5 20 -5 20 14 3 10 -9 19 -22 18 -28z"/>
<path d="M2920 2861 c0 -5 5 -13 10 -16 6 -3 10 -2 10 4 0 5 -4 13 -10 16 -5
3 -10 2 -10 -4z"/>
<path d="M2970 2795 c6 -8 8 -20 4 -26 -4 -7 -3 -9 2 -6 6 3 10 -11 9 -34 0
-27 -4 -38 -13 -34 -9 3 -10 0 -3 -14 6 -10 10 -26 9 -37 0 -10 3 -28 8 -39 7
-18 6 -18 -9 -6 -9 7 -17 20 -17 27 0 8 -4 14 -10 14 -5 0 -10 -18 -10 -40 0
-22 5 -40 10 -40 6 0 10 -5 10 -11 0 -5 -5 -7 -12 -3 -8 5 -9 0 -5 -16 3 -13
2 -31 -3 -41 -6 -10 -12 -83 -14 -163 -3 -130 -2 -145 12 -134 13 11 14 10 4
-7 -17 -34 -7 -194 14 -214 16 -15 16 -15 10 4 -4 11 -9 34 -11 50 l-4 30 15
-27 c18 -34 27 -37 14 -5 -20 50 -33 150 -17 140 4 -2 7 -22 7 -43 0 -39 16
-55 36 -36 28 29 51 97 38 118 -3 4 -18 1 -33 -7 -28 -14 -29 -14 -35 15 -3
18 -12 30 -21 30 -13 0 -14 3 -3 14 11 12 15 9 29 -20 15 -34 17 -34 23 -12 8
30 8 43 0 35 -4 -3 -16 6 -27 20 -15 18 -18 28 -9 31 7 2 10 8 7 13 -4 5 0 7
7 4 13 -5 16 43 20 315 2 115 -9 170 -34 170 -7 0 -6 -5 2 -15z"/>
<path d="M1446 2599 c-3 -19 -4 -50 -3 -69 2 -19 -2 -50 -8 -68 -9 -24 -9 -42
-1 -68 14 -45 41 -42 41 5 0 19 6 36 13 39 14 4 16 42 2 42 -5 0 -10 18 -10
40 0 22 5 40 10 40 6 0 10 16 10 35 0 35 -20 51 -20 18 -1 -17 -2 -17 -15 1
-13 17 -14 16 -19 -15z"/>
<path d="M1387 2456 c-10 -24 -8 -88 1 -104 6 -9 12 -6 20 12 8 18 7 35 -2 66
-9 32 -14 39 -19 26z"/>
<path d="M2985 2300 c3 -5 8 -10 11 -10 2 0 4 5 4 10 0 6 -5 10 -11 10 -5 0
-7 -4 -4 -10z"/>
<path d="M1390 2261 c0 -25 6 -27 13 -6 4 8 2 17 -3 20 -6 4 -10 -3 -10 -14z"/>
<path d="M1471 2270 c5 -4 -13 -17 -40 -29 -46 -22 -50 -27 -67 -85 -10 -33
-18 -67 -16 -73 2 -7 -4 -13 -13 -13 -20 0 -19 -19 2 -42 15 -17 15 -18 -5
-18 -33 0 -27 -19 11 -35 33 -14 33 -14 -19 -30 -9 -3 -14 -11 -11 -18 2 -8
20 -11 55 -9 31 2 52 0 52 -6 0 -6 -6 -12 -12 -15 -7 -2 -10 -8 -6 -12 5 -5
16 2 27 13 20 23 67 30 73 10 3 -9 16 -8 53 2 l48 13 -26 23 c-16 14 -23 25
-16 29 6 4 52 4 102 0 51 -4 114 -9 140 -10 36 -2 52 -8 63 -24 14 -19 14 -22
0 -27 -12 -5 -9 -11 14 -31 28 -23 30 -30 30 -91 0 -84 19 -72 22 15 2 47 6
59 15 51 9 -7 11 -35 6 -101 -5 -85 -4 -93 16 -111 21 -19 21 -19 48 9 27 27
28 30 31 167 2 98 7 147 17 162 12 18 11 27 -10 71 -28 58 -72 90 -114 82 -18
-4 -42 1 -65 14 -20 10 -47 19 -60 19 -14 0 -28 4 -31 10 -12 19 -168 79 -207
80 -10 0 -18 5 -18 10 0 6 -22 9 -50 8 -27 -1 -45 -5 -39 -8z"/>
<path d="M2337 2114 c-4 -4 -28 -12 -54 -19 -46 -12 -48 -14 -54 -54 -3 -23
-2 -44 3 -47 4 -3 8 -20 8 -39 0 -19 5 -37 10 -40 6 -3 10 -2 10 3 0 9 52 -5
78 -21 6 -5 17 -5 22 -2 6 3 10 1 10 -6 0 -8 4 -8 13 -1 6 6 26 12 42 14 19 2
29 8 27 17 -2 8 3 11 13 8 8 -4 15 -2 15 3 0 13 47 13 55 0 3 -6 15 -5 30 2
20 9 28 8 43 -5 10 -10 24 -17 30 -17 7 0 12 -5 12 -11 0 -13 40 -8 42 6 0 6
9 16 20 23 10 7 16 17 13 22 -8 13 30 18 43 4 9 -10 9 -14 -1 -17 -7 -3 -3 -6
8 -6 26 -1 60 25 45 34 -5 3 -8 10 -5 15 3 5 0 12 -6 16 -8 5 -7 9 2 15 10 6
9 12 -6 29 -11 12 -19 24 -17 26 7 11 0 14 -15 5 -14 -7 -21 -3 -35 20 -17 28
-17 28 -95 22 -69 -5 -110 -5 -163 -1 -8 0 -40 -2 -70 -5 -32 -4 -57 -3 -60 3
-4 6 -9 7 -13 4z"/>
<path d="M2941 1944 c0 -11 3 -14 6 -6 3 7 2 16 -1 19 -3 4 -6 -2 -5 -13z"/>
<path d="M1670 1926 c0 -2 7 -6 15 -10 8 -3 15 -1 15 4 0 6 -7 10 -15 10 -8 0
-15 -2 -15 -4z"/>
<path d="M10 1880 c8 -5 20 -10 25 -10 6 0 3 5 -5 10 -8 5 -19 10 -25 10 -6 0
-3 -5 5 -10z"/>
<path d="M2345 1866 c22 -14 45 -26 50 -26 6 -1 28 -4 51 -9 31 -6 41 -5 41 6
0 7 -9 13 -19 13 -11 0 -29 5 -41 12 -12 6 -35 12 -52 13 -16 1 -39 5 -50 9
-11 4 -2 -4 20 -18z"/>
<path d="M0 1851 c0 -5 5 -13 10 -16 5 -3 10 -2 10 4 0 5 -4 13 -10 16 -5 3
-10 2 -10 -4z"/>
<path d="M3 1645 c0 -22 2 -30 4 -17 2 12 2 30 0 40 -3 9 -5 -1 -4 -23z"/>
<path d="M1240 1404 c0 -8 5 -12 10 -9 6 4 8 11 5 16 -9 14 -15 11 -15 -7z"/>
<path d="M2462 1300 c0 -14 2 -19 5 -12 2 6 2 18 0 25 -3 6 -5 1 -5 -13z"/>
<path d="M2270 1150 c0 -5 4 -10 9 -10 6 0 13 5 16 10 3 6 -1 10 -9 10 -9 0
-16 -4 -16 -10z"/>
<path d="M2215 1120 c3 -5 8 -10 11 -10 2 0 4 5 4 10 0 6 -5 10 -11 10 -5 0
-7 -4 -4 -10z"/>
<path d="M2582 1062 c-18 -15 -32 -33 -32 -40 0 -7 -9 -12 -20 -12 -11 0 -20
-5 -20 -11 0 -5 4 -8 9 -5 5 4 7 -3 4 -15 -4 -14 -8 -17 -13 -9 -5 8 -11 0
-18 -20 -7 -18 -16 -29 -22 -25 -6 4 -9 2 -8 -4 3 -10 -115 -144 -204 -233
-26 -27 -44 -48 -40 -48 4 0 66 57 137 128 71 70 133 126 138 124 5 -1 6 2 3
7 -4 5 4 13 16 17 12 3 27 12 33 18 5 7 26 29 45 50 29 31 32 38 20 46 -12 8
-10 9 9 8 29 -4 38 28 12 41 -13 7 -25 3 -49 -17z"/>
<path d="M1580 1070 c0 -5 4 -10 9 -10 6 0 13 5 16 10 3 6 -1 10 -9 10 -9 0
-16 -4 -16 -10z"/>
<path d="M1610 1045 c0 -8 4 -15 10 -15 5 0 7 7 4 15 -4 8 -8 15 -10 15 -2 0
-4 -7 -4 -15z"/>
<path d="M1 964 c0 -11 3 -14 6 -6 3 7 2 16 -1 19 -3 4 -6 -2 -5 -13z"/>
<path d="M1910 959 c0 -5 11 -9 25 -9 14 0 25 2 25 4 0 2 -11 6 -25 8 -14 3
-25 1 -25 -3z"/>
</g>
</svg>
